<svg xmlns="http://www.w3.org/2000/svg" viewBox="0 0 450 810" preserveAspectRatio="xMinYMin meet"><g fill="none"><path d="M450 810H0v-44.524c10.292-.761 25.445-1.903 45.457-3.425 20.013-1.522 33.831-3.806 41.455-6.85 14.105-5.708 23.73-13.224 28.876-22.548 5.146-9.323 7.719-21.215 7.719-35.676v-574.25c0-12.938-2.478-24.355-7.433-34.25-4.956-9.894-14.676-17.885-29.162-23.974-9.148-3.805-22.68-7.706-40.597-11.702C28.4 48.805 12.961 46.047 0 44.524V0h450v44.524c-11.436 1.142-25.73 2.76-42.884 4.852-17.154 2.093-31.64 5.043-43.457 8.848-14.866 4.947-24.777 12.653-29.733 23.118-4.955 10.466-7.433 22.358-7.433 35.677v573.679c0 13.7 2.573 25.401 7.72 35.105 5.145 9.704 14.961 17.6 29.446 23.69 8.006 3.425 21.252 6.754 39.74 9.989 18.488 3.235 34.022 5.233 46.601 5.994V810z" id="I" fill="#000"/></g></svg>