<svg xmlns="http://www.w3.org/2000/svg" viewBox="0 0 450 810" preserveAspectRatio="xMinYMin meet">
    <g fill="none">
        <path d="M450,810 L0,810 L0,765.475687 C10.2923005,764.714584 25.4446267,763.572946 45.4574333,762.05074 C65.4702398,760.528534 79.288399,758.245258 86.9123253,755.200846 C101.016589,749.492572 110.641652,741.976791 115.787802,732.653277 C120.933952,723.329763 123.506989,711.437704 123.506989,696.976744 L123.506989,122.727273 C123.506989,109.788519 121.02925,98.3721425 116.073698,88.4778013 C111.118145,78.58346 101.397785,70.5919966 86.9123253,64.5031712 C77.7636137,60.6976554 64.2313475,56.7970601 46.3151207,52.8012685 C28.3988939,48.8054768 12.9606747,46.0465192 0,44.5243129 L0,0 L450,0 L450,44.5243129 C438.564111,45.6659677 424.269463,47.2832876 407.115629,49.3763214 C389.961795,51.4693551 375.476552,54.4185856 363.659466,58.2241015 C348.79281,63.1712721 338.881855,70.8773261 333.926302,81.3424947 C328.97075,91.8076633 326.493011,103.699722 326.493011,117.019027 L326.493011,690.697674 C326.493011,704.397532 329.066048,716.099317 334.212198,725.803383 C339.358348,735.507448 349.174006,743.403775 363.659466,749.4926 C371.664589,752.917565 384.910962,756.247341 403.398983,759.48203 C421.887005,762.716718 437.420522,764.714584 450,765.475687 L450,810 Z" id="I" fill="#000000"></path>
    </g>
</svg>
